<?xml version="1.0" encoding="UTF-8" standalone="no"?>
<!DOCTYPE svg PUBLIC "-//W3C//DTD SVG 1.1//EN" "http://www.w3.org/Graphics/SVG/1.1/DTD/svg11.dtd">
<svg width="100%" height="100%" viewBox="0 0 1728 637" version="1.1" xmlns="http://www.w3.org/2000/svg" xmlns:xlink="http://www.w3.org/1999/xlink" xml:space="preserve" xmlns:serif="http://www.serif.com/" style="fill-rule:evenodd;clip-rule:evenodd;">
    <g transform="matrix(1,0,0,1,-852.765,-921.754)">
        <g id="tietosiru" transform="matrix(4.16667,0,0,4.16667,878.087,939.528)">
            <g transform="matrix(1,0,0,1,0.0001,118.166)">
                <path d="M0,-91.639C0,-91.639 6.769,-24.642 15.916,-8.636C25.062,7.371 51.22,25.435 59.68,26.121C68.141,26.807 99.329,4.398 105.502,-7.95C111.676,-20.297 118.625,-52.87 120.912,-90.828C117.017,-92.954 66.54,-117.764 60.48,-118.164C56.204,-118.446 0,-91.639 0,-91.639" style="fill:rgb(111,111,110);fill-rule:nonzero;"/>
            </g>
            <g transform="matrix(-0.707107,0.707107,0.707107,0.707107,53.0775,122.269)">
                <path d="M-103.781,-22.821L11.905,-22.821L5.489,-41.173L-5.527,-57.967L-91.253,-57.967" style="fill:rgb(87,87,86);fill-rule:nonzero;"/>
            </g>
            <g transform="matrix(1,0,0,1,79.8209,13.2691)">
                <path d="M0,106.377L-38.73,106.377L-38.73,6.671L-35.243,3.275L-30.421,0L-8.688,0L-3.935,2.732L0,6.807L0,106.377Z" style="fill:rgb(228,33,34);fill-rule:nonzero;"/>
            </g>
            <g transform="matrix(1,0,0,1,9.3678,111.035)">
                <path d="M0,-77.439C0,-77.439 5.721,-20.823 13.45,-7.297C21.179,6.229 43.283,21.494 50.433,22.074C57.582,22.653 83.938,3.717 89.155,-6.717C94.372,-17.152 100.244,-44.677 102.176,-76.753C98.885,-78.55 56.229,-99.515 51.109,-99.854C47.496,-100.092 0,-77.439 0,-77.439Z" style="fill:none;fill-rule:nonzero;stroke:rgb(218,218,218);stroke-width:7.49px;"/>
            </g>
            <g>
                <path d="M162.978,67.248L162.978,125.592L152.946,125.592L152.946,67.248L141.946,67.248L141.946,58.36L174.066,58.36L174.066,67.248L162.978,67.248Z" style="fill:white;fill-rule:nonzero;"/>
                <path d="M178.818,75.96L178.818,65.84L188.674,65.84L188.674,75.96L178.818,75.96ZM178.906,125.592L178.906,82.208L188.586,82.208L188.586,125.592L178.906,125.592Z" style="fill:white;fill-rule:nonzero;"/>
                <path d="M226.162,120.224C226.162,123.803 224.314,125.592 220.618,125.592L203.634,125.592C199.938,125.592 198.09,123.803 198.09,120.224L198.09,87.576C198.09,83.997 199.938,82.208 203.634,82.208L220.618,82.208C224.314,82.208 226.162,83.997 226.162,87.576L226.162,103.504L223.434,106.232L207.506,106.232L207.506,118.376L216.746,118.376L216.746,111.16L226.162,111.16L226.162,120.224ZM216.746,89.424L207.506,89.424L207.506,99.808L216.746,99.808L216.746,89.424Z" style="fill:white;fill-rule:nonzero;"/>
                <path d="M243.322,125.592C239.684,125.592 237.866,123.803 237.866,120.224L237.866,90.568L233.202,90.568L233.202,82.208L237.866,82.208L237.866,70.416L247.634,70.416L247.634,82.208L253.97,82.208L253.97,90.568L247.634,90.568L247.634,117.232L254.234,117.232L254.234,125.592L243.322,125.592Z" style="fill:white;fill-rule:nonzero;"/>
                <path d="M288.29,120.224C288.29,123.803 286.471,125.592 282.834,125.592L265.234,125.592C261.538,125.592 259.69,123.803 259.69,120.224L259.69,87.576C259.69,83.997 261.538,82.208 265.234,82.208L282.834,82.208C286.471,82.208 288.29,83.997 288.29,87.576L288.29,120.224ZM278.698,90.392L269.37,90.392L269.37,117.408L278.698,117.408L278.698,90.392Z" style="fill:white;fill-rule:nonzero;"/>
                <path d="M322.698,120.224C322.698,123.803 320.879,125.592 317.242,125.592L300.698,125.592C297.06,125.592 295.242,123.803 295.242,120.224L295.242,110.896L304.658,110.896L304.658,118.2L313.282,118.2L313.282,111.336L298.234,102.448C297.236,101.92 296.488,101.304 295.99,100.6C295.491,99.896 295.242,98.928 295.242,97.696L295.242,87.576C295.242,83.997 297.09,82.208 300.786,82.208L317.154,82.208C320.791,82.208 322.61,83.997 322.61,87.576L322.61,96.288L313.282,96.288L313.282,89.6L304.658,89.6L304.658,95.848L319.706,104.648C320.703,105.117 321.451,105.719 321.95,106.452C322.448,107.185 322.698,108.197 322.698,109.488L322.698,120.224Z" style="fill:white;fill-rule:nonzero;"/>
                <path d="M329.738,75.96L329.738,65.84L339.594,65.84L339.594,75.96L329.738,75.96ZM329.826,125.592L329.826,82.208L339.506,82.208L339.506,125.592L329.826,125.592Z" style="fill:white;fill-rule:nonzero;"/>
                <path d="M364.41,100.336L364.41,90.392L356.666,90.568L356.666,125.592L346.81,125.592L346.81,82.208L356.666,82.208L356.666,83.792L365.642,82.384C366.17,82.267 366.712,82.179 367.27,82.12C367.827,82.061 368.34,82.032 368.81,82.032C372.388,82.032 374.178,83.792 374.178,87.312L374.178,100.336L364.41,100.336Z" style="fill:white;fill-rule:nonzero;"/>
                <path d="M398.818,125.592L398.818,124.096L388.434,125.504C387.847,125.621 387.26,125.709 386.674,125.768C386.087,125.827 385.559,125.856 385.09,125.856C381.511,125.856 379.722,124.067 379.722,120.488L379.722,82.208L389.49,82.208L389.49,117.408L398.818,117.232L398.818,82.208L408.586,82.208L408.586,125.592L398.818,125.592Z" style="fill:white;fill-rule:nonzero;"/>
            </g>
            <path d="M70.174,54.965C70.174,57.451 68.891,58.694 66.324,58.694L54.527,58.694C51.96,58.694 50.676,57.451 50.676,54.965L50.676,32.289C50.676,29.803 51.96,28.56 54.527,28.56L66.324,28.56C68.891,28.56 70.174,29.803 70.174,32.289L70.174,43.352L68.28,45.247L57.216,45.247L57.216,53.682L63.634,53.682L63.634,48.669L70.174,48.669L70.174,54.965ZM63.634,33.572L57.216,33.572L57.216,40.785L63.634,40.785L63.634,33.572Z" style="fill:white;fill-rule:nonzero;"/>
            <g>
                <clipPath id="_clip1">
                    <path d="M0,26.527C0,26.527 6.769,93.524 15.916,109.531C25.062,125.537 51.22,143.601 59.68,144.287C59.801,144.296 59.928,144.302 60.058,144.302L60.094,144.302C69.11,144.275 99.425,122.371 105.503,110.216C111.676,97.869 118.625,65.295 120.912,27.338C117.017,25.212 66.541,0.403 60.481,0.002C60.459,0.001 60.434,0 60.409,0C55.622,-0.003 0,26.527 0,26.527Z" clip-rule="nonzero"/>
                </clipPath>
                <g clip-path="url(#_clip1)">
                    <g transform="matrix(1,0,0,1,6.1925,64.2937)">
                        <path d="M0,80.08L113.068,80.08L56.313,0L0,80.08Z" style="fill:rgb(252,220,52);fill-rule:nonzero;"/>
                    </g>
                    <g transform="matrix(1,0,0,1,5.5699,91.2426)">
                        <path d="M0,37.819L46.5,38.846L23.731,-1.027L0,37.819Z" style="fill:rgb(243,147,34);fill-rule:nonzero;"/>
                    </g>
                    <g transform="matrix(1,0,0,1,36.0094,145.171)">
                        <path d="M0,-43.198L-19.918,-15.94L24.675,0L0,-43.198Z" style="fill:rgb(249,176,61);fill-rule:nonzero;"/>
                    </g>
                    <g transform="matrix(1,0,0,1,99.0817,129.231)">
                        <path d="M0,-50.492L-29.983,0L30.208,0L0,-50.492Z" style="fill:rgb(239,122,44);fill-rule:nonzero;"/>
                    </g>
                    <g transform="matrix(1,0,0,1,59.8502,98.9587)">
                        <path d="M0,45.914L49.084,30.027L27.224,0L0,45.914Z" style="fill:rgb(247,192,45);fill-rule:nonzero;"/>
                    </g>
                    <g transform="matrix(1,0,0,1,62.2809,138.059)">
                        <path d="M0,-57.063L-12.202,-22.631L1.443,-26.729L-1.466,0L15.617,-38.643L-1.008,-33.674L0,-57.063Z" style="fill:rgb(230,41,42);fill-rule:nonzero;"/>
                    </g>
                </g>
            </g>
            <g transform="matrix(1,0,0,1,15.9967,126.429)">
                <path d="M0,-16.758L3.464,-21.036C3.464,-21.036 7.569,-11.811 22.642,0.414C37.715,12.639 44.103,12.917 44.103,12.917C44.103,12.917 50.982,13.473 70.014,-2.225C85.379,-14.899 86.334,-19.768 88.935,-28.174C90.33,-32.685 91.024,-35.262 91.024,-35.262C91.898,-33.801 94.673,-30.72 94.673,-30.72C94.673,-30.72 91.435,-18.197 88.451,-14.199C85.844,-10.539 80.268,-2.919 63.506,8.576C48.899,18.426 44.306,17.867 44.306,17.867C44.306,17.867 37.123,18.504 18.975,3.817C18.975,3.817 6.372,-5.789 0,-16.758" style="fill:rgb(111,111,110);fill-rule:nonzero;"/>
            </g>
        </g>
    </g>
</svg>
