<?xml version="1.0" encoding="UTF-8"?><svg id="a" xmlns="http://www.w3.org/2000/svg" xmlns:xlink="http://www.w3.org/1999/xlink" viewBox="0 0 420.4 145.2"><defs><style>.c,.d,.e,.f,.g,.h,.i,.j,.k,.l,.m,.n{stroke-width:0px;}.c,.o{fill:none;}.d{fill:#f7c02d;}.e{fill:#ef792c;}.f{fill:#706f6f;}.o{stroke:#dadada;stroke-width:6.3px;}.g{fill:#1d1d1b;}.h{fill:#e52322;}.i{fill:#575756;}.j{fill:#f9b03d;}.p{clip-path:url(#b);}.k{fill:#fff;}.l{fill:#e6292a;}.m{fill:#f39323;}.n{fill:#fedc34;}</style><clipPath id="b"><path class="c" d="M13.5,35.6s5.7,56.7,13.5,70.3,29.9,28.9,37.1,29.4c7.2.6,33.6-18.4,38.8-28.9s11.1-38,13-70.2c-3.3-1.8-46-22.8-51.2-23.1S13.5,35.6,13.5,35.6Z"/></clipPath></defs><path class="g" d="M156.8,49.3v58.3h-10v-58.3h-11v-8.9h32.1v8.9h-11.1Z"/><path class="g" d="M172.6,58v-10.1h9.9v10.1h-9.9ZM172.7,107.6v-43.4h9.7v43.4h-9.7Z"/><path class="g" d="M214.4,107.6h-17c-3.7,0-5.5-1.8-5.5-5.4v-32.6c0-3.6,1.8-5.4,5.5-5.4h17c3.7,0,5.5,1.8,5.5,5.4v15.9l-2.7,2.7h-15.9v12.1h9.2v-7.2h9.4v9.1c0,3.6-1.8,5.4-5.5,5.4ZM210.5,71.5h-9.2v10.4h9.2v-10.4Z"/><path class="g" d="M237.1,107.6c-3.7,0-5.5-1.8-5.5-5.4v-29.7h-4.7v-8.4h4.7v-11.8h9.9v11.8h6.3v8.4h-6.3v26.7h6.6v8.4h-11Z"/><path class="g" d="M276.6,107.6h-17.6c-3.7,0-5.5-1.8-5.5-5.4v-32.6c0-3.6,1.8-5.4,5.5-5.4h17.6c3.6,0,5.5,1.8,5.5,5.4v32.6c0,3.6-1.8,5.4-5.5,5.4ZM272.5,72.4h-9.3v27h9.3v-27Z"/><path class="g" d="M311,107.6h-16.5c-3.6,0-5.5-1.8-5.5-5.4v-9.3h9.4v7.3h8.6v-6.9l-15-8.9c-1-.5-1.7-1.1-2.2-1.8-.5-.7-.7-1.7-.7-2.9v-10.1c0-3.6,1.8-5.4,5.5-5.4h16.4c3.6,0,5.5,1.8,5.5,5.4v8.7h-9.3v-6.7h-8.6v6.2l15,8.8c1,.5,1.7,1.1,2.2,1.8.5.7.7,1.7.7,3v10.7c0,3.6-1.8,5.4-5.5,5.4Z"/><path class="g" d="M323.5,58v-10.1h9.9v10.1h-9.9ZM323.6,107.6v-43.4h9.7v43.4h-9.7Z"/><path class="g" d="M358.1,82.4v-9.9l-7.7.2v35h-9.9v-43.4h9.9v1.6l9-1.4c.5-.1,1.1-.2,1.6-.3.6,0,1.1,0,1.5,0,3.6,0,5.4,1.8,5.4,5.3v13h-9.9Z"/><path class="g" d="M392.5,107.6v-1.5l-10.3,1.4c-.6.1-1.2.2-1.8.3-.6,0-1.1,0-1.6,0-3.6,0-5.3-1.8-5.3-5.4v-38.3h9.9v35.2l9.2-.2v-35h9.9v43.4h-9.9Z"/><path class="f" d="M13.5,35.6s5.7,56.7,13.5,70.3,29.9,28.9,37.1,29.4c7.2.6,33.6-18.4,38.8-28.9,5.2-10.5,11.1-38,13-70.2-3.3-1.8-46-22.8-51.2-23.1S13.5,35.6,13.5,35.6Z"/><polygon class="i" points="107 40.8 37.7 110.1 30.6 95.3 27.1 78.6 27.1 78.6 78.4 27.3 107 40.8"/><polygon class="h" points="81.1 114.4 48.3 114.4 48.3 30 51.3 27.1 55.4 24.3 73.8 24.3 77.8 26.7 81.1 30.1 81.1 114.4"/><path class="o" d="M21.5,41.6s4.8,47.9,11.4,59.4c6.5,11.5,25.3,24.4,31.3,24.9,6.1.5,28.4-15.5,32.8-24.4s9.4-32.1,11-59.3c-2.8-1.5-38.9-19.3-43.2-19.6s-43.3,19-43.3,19Z"/><path class="k" d="M69.7,62.8h-10c-2.2,0-3.3-1.1-3.3-3.2v-19.2c0-2.1,1.1-3.2,3.3-3.2h10c2.2,0,3.3,1.1,3.3,3.2v9.4l-1.6,1.6h-9.4v7.1h5.4v-4.2h5.5v5.3c0,2.1-1.1,3.2-3.3,3.2ZM67.4,41.5h-5.4v6.1h5.4v-6.1Z"/><g class="p"><polygon class="n" points="18.8 135.4 114.5 135.4 66.5 67.5 18.8 135.4"/><polygon class="m" points="18.3 122.4 57.6 123.3 38.4 89.5 18.3 122.4"/><polygon class="j" points="44 99.5 27.2 122.5 64.9 136 44 99.5"/><polygon class="e" points="97.4 79.8 72.1 122.5 123 122.5 97.4 79.8"/><polygon class="d" points="64.2 135.8 105.8 122.3 87.3 96.9 64.2 135.8"/><polygon class="l" points="66.3 81.7 56 110.9 67.5 107.4 65 130 79.5 97.3 65.4 101.5 66.3 81.7"/></g><path class="f" d="M27.1,106l2.9-3.6s3.5,7.8,16.2,18.2c12.8,10.4,18.2,10.6,18.2,10.6,0,0,5.8.5,21.9-12.8s13.8-14.9,16-22,1.8-6,1.8-6c.7,1.2,3.1,3.8,3.1,3.8,0,0-2.7,10.6-5.3,14-2.2,3.1-6.9,9.6-21.1,19.3-12.4,8.3-16.3,7.9-16.3,7.9,0,0-6.1.5-21.5-11.9,0,0-10.7-8.1-16.1-17.4Z"/></svg>